<?xml version="1.0" encoding="UTF-8" standalone="no"?>
<!-- Created with Inkscape (http://www.inkscape.org/) -->

<svg
   xmlns:dc="http://purl.org/dc/elements/1.1/"
   xmlns:cc="http://creativecommons.org/ns#"
   xmlns:rdf="http://www.w3.org/1999/02/22-rdf-syntax-ns#"
   xmlns:svg="http://www.w3.org/2000/svg"
   xmlns="http://www.w3.org/2000/svg"
   xmlns:sodipodi="http://sodipodi.sourceforge.net/DTD/sodipodi-0.dtd"
   xmlns:inkscape="http://www.inkscape.org/namespaces/inkscape"
   width="2274.1802"
   height="416.60739"
   viewBox="0 0 601.71016 110.22737"
   version="1.1"
   id="svg8"
   inkscape:version="0.92.4 (5da689c313, 2019-01-14)"
   sodipodi:docname="drawing.svg">
  <defs
     id="defs2" />
  <sodipodi:namedview
     id="base"
     pagecolor="#ffffff"
     bordercolor="#666666"
     borderopacity="1.0"
     inkscape:pageopacity="0.0"
     inkscape:pageshadow="2"
     inkscape:zoom="0.77610385"
     inkscape:cx="1137.0901"
     inkscape:cy="208.3037"
     inkscape:document-units="px"
     inkscape:current-layer="layer1"
     showgrid="false"
     showguides="false"
     inkscape:guide-bbox="true"
     units="px"
     inkscape:window-width="1920"
     inkscape:window-height="1017"
     inkscape:window-x="-8"
     inkscape:window-y="-8"
     inkscape:window-maximized="1"
     fit-margin-top="0"
     fit-margin-left="0"
     fit-margin-right="0"
     fit-margin-bottom="0" />
  <metadata
     id="metadata5">
    <rdf:RDF>
      <cc:Work
         rdf:about="">
        <dc:format>image/svg+xml</dc:format>
        <dc:type
           rdf:resource="http://purl.org/dc/dcmitype/StillImage" />
        <dc:title></dc:title>
      </cc:Work>
    </rdf:RDF>
  </metadata>
  <g
     inkscape:label="Layer 1"
     inkscape:groupmode="layer"
     id="layer1"
     transform="translate(23.714956,-94.16645)">
    <flowRoot
       xml:space="preserve"
       id="flowRoot929"
       style="font-style:normal;font-weight:normal;font-size:40px;line-height:1.25;font-family:sans-serif;letter-spacing:0px;word-spacing:0px;fill:#000000;fill-opacity:1;stroke:none"
       transform="matrix(0.26458334,0,0,0.26458334,0,11.249993)"><flowRegion
         id="flowRegion931"><rect
           id="rect933"
           width="1379.6587"
           height="585.36432"
           x="724.05066"
           y="564.87939" /></flowRegion><flowPara
         id="flowPara935" /></flowRoot>    <text
       xml:space="preserve"
       style="font-style:normal;font-weight:normal;font-size:105.31302643px;line-height:1.25;font-family:sans-serif;letter-spacing:0px;word-spacing:0px;fill:#1e863f;fill-opacity:1;stroke:none;stroke-width:2.63282561"
       x="-9.5600433"
       y="214.81073"
       id="text4520-5"><tspan
         sodipodi:role="line"
         id="tspan4518-9"
         x="-9.5600433"
         y="310.89099"
         style="font-style:normal;font-variant:normal;font-weight:normal;font-stretch:normal;font-family:'Century Gothic';-inkscape-font-specification:'Century Gothic';fill:#1e863f;fill-opacity:1;stroke-width:2.63282561" /></text>
    <text
       xml:space="preserve"
       style="font-style:normal;font-variant:normal;font-weight:normal;font-stretch:normal;font-size:92.10923767px;line-height:1.25;font-family:'Century Gothic';-inkscape-font-specification:'Century Gothic';letter-spacing:0px;word-spacing:0px;fill:#000000;fill-opacity:1;stroke:none;stroke-width:0.95947111"
       x="595.62653"
       y="262.55423"
       id="text895-9-7"><tspan
         sodipodi:role="line"
         id="tspan893-3-0"
         x="595.62653"
         y="346.17786"
         style="font-style:normal;font-variant:normal;font-weight:normal;font-stretch:normal;font-family:'Century Gothic';-inkscape-font-specification:'Century Gothic';stroke-width:0.95947111" /></text>
    <path
       id="text895-9"
       style="font-style:normal;font-variant:normal;font-weight:normal;font-stretch:normal;font-size:93.6926651px;line-height:1.25;font-family:'Century Gothic';-inkscape-font-specification:'Century Gothic';letter-spacing:0px;word-spacing:0px;fill:#00292e;fill-opacity:1;stroke:none;stroke-width:1.56067097"
       d="m 17.801402,116.09388 c -4.633248,0 -8.8763618,0.64621 -12.729262,1.93864 -3.8529162,1.26805 -7.3156027,3.03573 -10.3881715,5.30358 -3.07258,2.24346 -5.7676705,4.88984 -8.0842895,7.93802 -2.292236,3.04818 -4.206096,6.32797 -5.742382,9.83947 -1.511901,3.51153 -2.658151,7.1939 -3.438484,11.0468 -0.755951,3.82851 -1.133769,7.64426 -1.133769,11.44839 0,3.95045 0.389792,7.70633 1.170125,11.26661 0.804722,3.53589 1.939001,6.81567 3.402128,9.83947 1.463132,3.0238 3.230816,5.75481 5.303584,8.19337 2.072767,2.41415 4.3892166,4.47501 6.9496911,6.18199 2.5604761,1.70699 5.3282395,3.01139 8.3032788,3.91366 2.9994098,0.92664 6.1449937,1.38994 9.4370241,1.38994 2.487328,0 4.97472,-0.24363 7.462032,-0.73134 2.511715,-0.46332 4.999107,-1.24373 7.462049,-2.34107 2.462926,-1.09736 4.913571,-2.53594 7.352126,-4.31608 2.43854,-1.78014 4.853269,-3.98718 7.243052,-6.62081 0.195074,-0.26823 0.292524,-0.47594 0.292524,-0.62224 0,-0.21948 -0.08539,-0.43832 -0.256177,-0.6578 -0.146318,-0.21946 -0.329223,-0.41519 -0.548701,-0.58588 -0.219461,-0.19509 -0.463085,-0.36522 -0.731318,-0.51152 -0.243864,-0.14632 -0.463533,-0.26854 -0.658608,-0.36608 -2.04839,1.8533 -4.109237,3.45087 -6.182013,4.79207 -2.048374,1.31681 -4.084451,2.41351 -6.108454,3.29139 -2.023988,0.85349 -4.023317,1.48773 -5.998548,1.90228 -1.950844,0.39017 -3.853555,0.58506 -5.706855,0.58506 -2.658016,0 -5.1933017,-0.41456 -7.6074709,-1.24367 -2.3897668,-0.8291 -4.6215741,-2.02408 -6.69435027,-3.58474 -2.04837383,-1.58507 -3.90152893,-3.5109 -5.55975313,-5.77874 -1.6582066,-2.26787 -3.0728518,-4.82875 -4.2433569,-7.68186 -1.1704998,-2.85309 -2.0723058,-5.97391 -2.7063288,-9.36348 -0.634023,-3.38959 -0.951142,-6.99928 -0.951142,-10.82781 0,-3.24326 0.243619,-6.44955 0.73133,-9.61966 0.512096,-3.17012 1.268555,-6.1943 2.268362,-9.07179 1.0241898,-2.87748 2.3038114,-5.535 3.8400974,-7.97355 1.5606787,-2.46293 3.3898792,-4.5845 5.48702581,-6.36464 2.09716259,-1.80451 4.47429649,-3.20718 7.13232919,-4.20699 2.6824031,-1.02419 5.6578586,-1.53621 8.9255176,-1.53621 1.902072,0 3.767204,0.1949 5.596101,0.58507 1.828929,0.36578 3.548703,0.91454 5.158154,1.64612 1.609435,0.73155 3.084786,1.63419 4.425987,2.70715 1.365588,1.07295 2.535782,2.30468 3.511204,3.69466 0.926649,1.38997 1.560886,2.85251 1.902279,4.38879 0.36578,1.5119 0.560679,3.10947 0.585065,4.79207 0,0.34139 -0.01119,0.67049 -0.0363,0.98751 0,0.29262 -0.01279,0.60974 -0.03726,0.95113 l 3.1823,0.10986 c 0.19509,-3.80414 0.354058,-7.04799 0.475989,-9.7304 0.122012,-2.6824 0.182618,-4.86465 0.182618,-6.54724 0,-0.80474 -0.560726,-1.69456 -1.682466,-2.66998 -1.121725,-0.97542 -2.67057,-1.89003 -4.645801,-2.74352 -1.975215,-0.85349 -4.32841,-1.5732 -7.059586,-2.15844 -2.706805,-0.58526 -5.656659,-0.87761 -8.851159,-0.87761 z m 244.232498,1.6461 c -0.4877,0 -0.98774,0.0368 -1.49984,0.10986 -0.51209,0.0731 -0.99932,0.19455 -1.46265,0.36524 -0.46332,0.1707 -0.8907,0.41514 -1.28087,0.73216 -0.39016,0.29262 -0.70728,0.67044 -0.95113,1.13377 -2.65803,5.02341 -5.7301,11.27782 -9.21722,18.76417 -3.48714,7.46195 -7.46185,16.09517 -11.92439,25.89814 -1.56068,0.0243 -2.34109,0.52359 -2.34109,1.49901 0,0.53649 0.2556,1.20747 0.7677,2.01219 -2.43856,5.29165 -4.97467,10.82719 -7.6083,16.60655 -2.60925,5.77935 -5.37703,11.83888 -8.30328,18.1791 l 0.51234,0.36607 c 0.5121,0.0243 1.08482,0.0363 1.71883,0.0363 0.60964,0.0243 1.12248,0.0363 1.53704,0.0363 0.73156,0 1.4265,-0.024 2.0849,-0.0728 0.65842,-0.0243 1.26787,-0.15863 1.82874,-0.40243 0.56087,-0.21948 1.08485,-0.58532 1.57256,-1.09742 0.48771,-0.51209 0.92705,-1.23179 1.31723,-2.15844 0.31701,-0.80473 0.65806,-1.69455 1.02386,-2.66998 0.36578,-0.9998 0.79232,-2.18197 1.28003,-3.54756 0.4877,-1.36559 1.04927,-2.96316 1.68329,-4.79207 0.65841,-1.85329 1.42601,-4.02358 2.30389,-6.51089 0.56087,-1.60945 1.21906,-3.4626 1.97501,-5.55975 0.78033,-2.09716 1.64621,-4.40163 2.59725,-6.91333 4.70639,-0.26825 9.25465,-0.47594 13.64405,-0.62226 4.41377,-0.17069 8.87572,-0.28012 13.38703,-0.32889 1.0242,4.73079 2.00032,8.88842 2.92697,12.47308 0.92665,3.56028 1.82845,6.6332 2.70633,9.21806 0.87788,2.58486 1.74376,4.73036 2.59725,6.43734 0.87788,1.70699 1.7677,3.07291 2.66998,4.0971 0.92665,0.99981 1.87799,1.70671 2.85341,2.12127 0.99981,0.41455 2.06059,0.62226 3.18231,0.62226 1.97523,0 4.24296,-0.36585 6.80343,-1.09741 2.56047,-0.73157 5.24278,-1.79235 8.0471,-3.18233 l -1.02386,-2.99968 c -1.02418,0.36578 -1.96358,0.64615 -2.81707,0.84124 -0.85349,0.19508 -1.69458,0.29253 -2.5237,0.29253 -1.26805,0 -2.43824,-0.20688 -3.51121,-0.62142 -1.07295,-0.41456 -2.09698,-1.14625 -3.07241,-2.19482 -0.95103,-1.04858 -1.87843,-2.48716 -2.7807,-4.31608 -0.90226,-1.82891 -1.80406,-4.14619 -2.70632,-6.95052 -0.90227,-2.82871 -1.84083,-6.20594 -2.81623,-10.132 -0.97543,-3.95046 -2.01225,-8.57138 -3.10961,-13.86303 -1.09734,-5.29164 -2.29232,-11.31442 -3.58474,-18.0692 -1.26805,-6.77916 -2.6699,-14.40032 -4.20618,-22.86209 -0.78035,-0.34139 -1.51202,-0.57304 -2.19482,-0.69497 -0.68278,-0.12201 -1.37772,-0.18263 -2.08491,-0.18263 z m -3.69466,8.12066 h 0.21982 c 0.60964,3.65782 1.23107,7.26669 1.8651,10.82698 0.63401,3.56027 1.25629,6.98622 1.86591,10.27827 0.60965,3.26766 1.20714,6.37731 1.79238,9.32794 0.58525,2.92627 1.13402,5.59575 1.64612,8.00992 -4.04799,0.0488 -8.03551,0.11034 -11.96157,0.18345 -3.92607,0.0488 -7.98626,0.12153 -12.18056,0.21898 2.14592,-5.5111 4.59657,-11.54667 7.35213,-18.10638 2.75556,-6.55969 5.88917,-13.47228 9.40067,-20.73916 z m 255.06775,0.0446 c -0.0272,0.40773 -0.0577,0.81112 -0.0851,1.20237 -0.0169,0.098 -0.0227,0.19719 -0.0339,0.29584 0.11241,-0.0473 0.22598,-0.0911 0.33882,-0.13721 -0.0683,-0.45102 -0.12266,-0.9016 -0.11322,-1.34037 9e-5,-0.005 8.5e-4,-0.0128 8.5e-4,-0.0173 -0.0358,-8.5e-4 -0.0716,-0.003 -0.10746,-0.003 z M 73.107224,148.97807 c -1.389974,0 -2.902056,0.15815 -4.535894,0.47516 -1.609435,0.29262 -3.218983,0.73196 -4.828418,1.31722 -1.609436,0.56087 -3.169427,1.2558 -4.681333,2.08491 -1.511906,0.8291 -2.841066,1.76765 -3.987193,2.81623 -1.146111,1.04858 -2.072696,2.2068 -2.779868,3.47486 -0.682802,1.26804 -1.024691,2.62115 -1.024691,4.0599 0,0.87788 0.146158,1.67108 0.438794,2.37825 0.317007,0.70719 0.731575,1.30468 1.243673,1.79239 0.536483,0.48771 1.158743,0.86554 1.865915,1.13377 0.731575,0.24385 1.511986,0.36525 2.341091,0.36525 1.41436,0 2.8162,-0.34107 4.206174,-1.02386 l 0.146318,-0.40245 c -0.82912,-1.12172 -1.462525,-2.26797 -1.901464,-3.43847 -0.414552,-1.1949 -0.622244,-2.37707 -0.622244,-3.54757 0,-0.99981 0.158152,-1.92639 0.475158,-2.77988 0.341393,-0.87788 0.878181,-1.63434 1.60974,-2.26837 0.755961,-0.63401 1.731255,-1.13405 2.926154,-1.49983 1.194884,-0.36578 2.658257,-0.5487 4.389624,-0.5487 1.292429,0 2.584858,0.21967 3.877287,0.65861 1.292429,0.43894 2.450661,1.10992 3.47484,2.01218 1.024194,0.90227 1.853315,2.06048 2.487344,3.47484 0.634029,1.41436 0.951148,3.0846 0.951148,5.01106 0,1.73136 -0.06077,3.31612 -0.182634,4.75487 -0.09755,1.43875 -0.231727,2.92689 -0.402431,4.46318 -2.658017,0 -5.267645,0.17012 -7.828116,0.51151 -2.560471,0.31702 -4.986346,0.81706 -7.278583,1.49985 -2.292238,0.65841 -4.413787,1.49951 -6.364631,2.52371 -1.950845,0.99981 -3.633871,2.19477 -5.048231,3.58474 -1.389975,1.38998 -2.487505,2.96278 -3.292222,4.71853 -0.780332,1.75575 -1.17013,3.70719 -1.17013,5.85311 0,1.65821 0.268394,3.19424 0.804878,4.60861 0.56087,1.38997 1.328473,2.59693 2.303895,3.62112 0.999808,1.02418 2.194772,1.82936 3.584746,2.41462 1.389974,0.58525 2.926842,0.87759 4.609437,0.87759 2.04839,0 3.998994,-0.50004 5.852293,-1.49984 1.877686,-0.97542 3.633391,-2.25587 5.267213,-3.84092 1.658224,-1.60945 3.170306,-3.42586 4.535894,-5.44986 1.389975,-2.04838 2.608909,-4.1212 3.657474,-6.21836 h 0.219813 c -0.121852,0.70719 -0.207404,1.37817 -0.256161,2.01218 -0.02431,0.63403 -0.0363,1.26744 -0.0363,1.90147 0,2.12153 0.267563,3.9875 0.804047,5.59693 0.536483,1.60945 1.29294,2.95059 2.268362,4.02356 0.975423,1.04858 2.133639,1.84095 3.47484,2.37743 1.341202,0.53649 2.804575,0.80488 4.389624,0.80488 2.121549,0 4.144817,-0.42736 6.071275,-1.28086 1.926458,-0.8535 3.706934,-2.09637 5.340769,-3.73019 l -1.061052,-1.57339 c -2.316624,1.38997 -4.413402,2.08491 -6.291072,2.08491 -2.121549,0 -3.840507,-0.87786 -5.157322,-2.63361 -1.292429,-1.78014 -1.938643,-4.42569 -1.938643,-7.93719 0,-2.21908 0.06077,-4.45006 0.182633,-6.69352 0.146319,-2.24347 0.304454,-4.41457 0.475143,-6.51173 0.170704,-2.12154 0.31771,-4.14482 0.439626,-6.07126 0.146318,-1.92646 0.218997,-3.69498 0.218997,-5.30441 0,-2.34101 -0.268394,-4.43779 -0.804878,-6.29109 -0.512097,-1.8533 -1.341233,-3.42608 -2.487344,-4.71851 -1.12174,-1.31682 -2.597075,-2.3169 -4.425987,-2.9997 -1.804527,-0.68278 -3.986778,-1.02386 -6.547265,-1.02386 z m 96.859376,0 c -1.38998,0 -2.90206,0.15815 -4.5359,0.47516 -1.60943,0.29262 -3.21898,0.73196 -4.82842,1.31722 -1.60945,0.56087 -3.17025,1.2558 -4.68216,2.08491 -1.51189,0.8291 -2.84024,1.76765 -3.98636,2.81623 -1.14611,1.04858 -2.07353,2.2068 -2.7807,3.47486 -0.6828,1.26804 -1.02386,2.62115 -1.02386,4.0599 0,0.87788 0.14616,1.67108 0.43879,2.37825 0.31701,0.70719 0.73158,1.30468 1.24368,1.79239 0.53648,0.48771 1.15874,0.86554 1.86591,1.13377 0.73158,0.24385 1.51199,0.36525 2.34109,0.36525 1.41436,0 2.8162,-0.34107 4.20618,-1.02386 l 0.14631,-0.40245 c -0.82912,-1.12172 -1.46335,-2.26797 -1.90229,-3.43847 -0.41455,-1.1949 -0.62141,-2.37707 -0.62141,-3.54757 0,-0.99981 0.15815,-1.92639 0.47515,-2.77988 0.3414,-0.87788 0.87819,-1.63434 1.60974,-2.26837 0.75596,-0.63401 1.73126,-1.13405 2.92616,-1.49983 1.19488,-0.36578 2.65826,-0.5487 4.38962,-0.5487 1.29243,0 2.58484,0.21967 3.87729,0.65861 1.29243,0.43894 2.45064,1.10992 3.47484,2.01218 1.02419,0.90227 1.85331,2.06048 2.48734,3.47484 0.63403,1.41436 0.95115,3.0846 0.95115,5.01106 0,1.73136 -0.0616,3.31612 -0.18346,4.75487 -0.0975,1.43875 -0.23173,2.92689 -0.40244,4.46318 -2.65801,0 -5.26681,0.17012 -7.82728,0.51151 -2.56047,0.31702 -4.98718,0.81706 -7.27941,1.49985 -2.29224,0.65841 -4.41379,1.49951 -6.36464,2.52371 -1.95082,0.99981 -3.63303,2.19477 -5.0474,3.58474 -1.38997,1.38998 -2.4875,2.96278 -3.29222,4.71853 -0.78034,1.75575 -1.17013,3.70719 -1.17013,5.85311 0,1.65821 0.26757,3.19424 0.80405,4.60861 0.56087,1.38997 1.3293,2.59693 2.30473,3.62112 0.99979,1.02418 2.19477,1.82936 3.58474,2.41462 1.38998,0.58525 2.92601,0.87759 4.60861,0.87759 2.04839,0 3.99982,-0.50004 5.85312,-1.49984 1.87767,-0.97542 3.63339,-2.25587 5.26722,-3.84092 1.65822,-1.60945 3.16949,-3.42586 4.53507,-5.44986 1.38996,-2.04838 2.60971,-4.1212 3.65829,-6.21836 h 0.21898 c -0.12185,0.70719 -0.20657,1.37817 -0.25534,2.01218 -0.0243,0.63403 -0.0371,1.26744 -0.0371,1.90147 0,2.12153 0.26839,3.9875 0.80488,5.59693 0.53648,1.60945 1.29211,2.95059 2.26753,4.02356 0.97542,1.04858 2.13447,1.84095 3.47567,2.37743 1.3412,0.53649 2.80374,0.80488 4.38879,0.80488 2.12155,0 4.14565,-0.42736 6.07211,-1.28086 1.92646,-0.8535 3.70693,-2.09637 5.34077,-3.73019 l -1.06105,-1.57339 c -2.31663,1.38997 -4.41341,2.08491 -6.29109,2.08491 -2.12153,0 -3.84132,-0.87786 -5.15814,-2.63361 -1.29243,-1.78014 -1.93864,-4.42569 -1.93864,-7.93719 0,-2.21908 0.0616,-4.45006 0.18345,-6.69352 0.14631,-2.24347 0.30447,-4.41457 0.47515,-6.51173 0.17071,-2.12154 0.31688,-4.14482 0.43882,-6.07126 0.14631,-1.92646 0.21979,-3.69498 0.21979,-5.30441 0,-2.34101 -0.26839,-4.43779 -0.80486,-6.29109 -0.5121,-1.8533 -1.34123,-3.42608 -2.48734,-4.71851 -1.12174,-1.31682 -2.59708,-2.3169 -4.42599,-2.9997 -1.80453,-0.68278 -3.98679,-1.02386 -6.54727,-1.02386 z m 257.40056,0 c -1.97523,0 -4.04805,0.59749 -6.21836,1.79238 -2.17032,1.19488 -4.35257,3.1455 -6.54726,5.85229 -2.19469,2.6824 -4.35299,6.19383 -6.47454,10.53444 -2.12153,4.31623 -4.10888,9.62012 -5.96218,15.91156 l -0.21898,-0.0363 c 0.21946,-2.12155 0.42633,-4.2431 0.62142,-6.36463 0.19508,-2.14593 0.36602,-4.21876 0.51234,-6.21836 0.17069,-1.99962 0.31686,-3.87756 0.4388,-5.63331 0.12201,-1.78014 0.21938,-3.35293 0.29254,-4.71851 0.0975,-1.36559 0.17104,-2.48706 0.21979,-3.36495 0.0488,-0.90225 0.0728,-1.4758 0.0728,-1.71965 0,-2.04839 -0.40176,-3.48698 -1.20649,-4.31608 -0.78033,-0.85349 -1.87786,-1.28004 -3.29222,-1.28004 -0.58524,0 -1.39042,0.0974 -2.41462,0.29253 -1.02419,0.19509 -2.20636,0.47546 -3.54757,0.84124 -1.3412,0.36578 -2.81653,0.80512 -4.42598,1.31722 -1.58505,0.48771 -3.24332,1.03564 -4.97469,1.64528 l 0.5487,2.63362 c 1.56068,-0.41455 2.95054,-0.74365 4.16981,-0.9875 1.21929,-0.24386 2.26807,-0.36525 3.14597,-0.36525 0.63401,0 1.18278,0.0854 1.6461,0.25616 0.46333,0.17071 0.84115,0.46305 1.13377,0.87761 0.317,0.39016 0.54865,0.92695 0.69497,1.60973 0.14632,0.68281 0.21898,1.5239 0.21898,2.52371 0,1.09736 -0.024,2.59665 -0.0728,4.49872 -0.0243,1.90205 -0.0859,4.06037 -0.18345,6.47452 -0.0731,2.38978 -0.17061,4.97462 -0.29254,7.75457 -0.0975,2.75556 -0.21893,5.5481 -0.36525,8.37682 -0.14632,2.80433 -0.30529,5.5721 -0.47599,8.30327 -0.17069,2.73118 -0.35361,5.25449 -0.5487,7.57111 l 0.58589,0.0373 7.64467,-0.95115 c 0.19508,-3.60905 0.67035,-7.21874 1.42629,-10.8278 0.75595,-3.60905 1.7073,-7.05894 2.85343,-10.35099 1.14611,-3.31641 2.42573,-6.38933 3.84009,-9.21804 1.43875,-2.85311 2.92689,-5.31573 4.46317,-7.38849 1.56067,-2.09716 3.12067,-3.74344 4.68134,-4.93834 1.56067,-1.19488 3.04881,-1.79237 4.46317,-1.79237 1.78014,0 3.20677,0.68296 4.27972,2.04855 1.07297,1.3412 1.60892,3.43798 1.60892,6.29108 0,1.07296 -0.0854,2.51156 -0.25616,4.31608 -0.14632,1.78014 -0.31645,3.76833 -0.51152,5.96302 -0.19509,2.19469 -0.37801,4.51114 -0.5487,6.9497 -0.14632,2.41415 -0.21981,4.76736 -0.21981,7.05958 0,1.87769 0.0488,3.63341 0.14631,5.26723 0.12202,1.63382 0.36639,3.06045 0.73217,4.27972 0.39017,1.21928 0.96287,2.1826 1.71883,2.88979 0.75595,0.70717 1.79194,1.06022 3.10876,1.06022 1.12174,0 2.41417,-0.1949 3.87728,-0.58508 1.46314,-0.36578 2.92651,-0.85384 4.38964,-1.46347 1.48751,-0.60964 2.90216,-1.27979 4.24336,-2.01137 1.3412,-0.73156 2.45071,-1.45127 3.32858,-2.15845 l -0.69497,-1.90145 c -1.38997,0.63401 -2.76787,1.13324 -4.13346,1.49901 -1.36559,0.3414 -2.68279,0.51234 -3.95083,0.51234 -0.87788,0 -1.62153,-0.12217 -2.23117,-0.36607 -0.60964,-0.26825 -1.09687,-0.7435 -1.46265,-1.4263 -0.36578,-0.70717 -0.63419,-1.65771 -0.80488,-2.8526 -0.14632,-1.19488 -0.21981,-2.74373 -0.21981,-4.6458 0,-1.09734 0.0368,-2.37779 0.10986,-3.84092 0.0975,-1.4875 0.20695,-3.04833 0.32888,-4.68216 0.12202,-1.63383 0.25613,-3.29127 0.40243,-4.97386 0.17071,-1.70698 0.31771,-3.31653 0.43963,-4.82842 0.12201,-1.51191 0.21938,-2.87783 0.29254,-4.0971 0.0976,-1.24366 0.14632,-2.23094 0.14632,-2.9625 0,-2.51172 -0.29316,-4.64606 -0.87842,-6.40181 -0.58524,-1.78014 -1.37763,-3.23072 -2.37744,-4.35245 -0.97541,-1.12174 -2.09689,-1.9389 -3.36493,-2.45098 -1.26804,-0.51209 -2.58524,-0.7677 -3.95083,-0.7677 z m -303.92797,0.0363 c -1.51189,0 -3.07271,0.14616 -4.68215,0.4388 -1.58506,0.26823 -3.13389,0.69478 -4.6458,1.28003 -1.5119,0.56086 -2.93851,1.2686 -4.27973,2.12209 -1.31682,0.8535 -2.48701,1.85274 -3.51119,2.99887 -0.99981,1.12173 -1.7922,2.3902 -2.37745,3.80456 -0.58524,1.41436 -0.87842,2.96237 -0.87842,4.64497 0,1.56068 0.21967,2.98729 0.6586,4.27972 0.46333,1.26804 1.0856,2.42627 1.86594,3.47485 0.80471,1.02418 1.7313,1.96358 2.77986,2.81707 1.07297,0.85349 2.21923,1.64586 3.4385,2.37743 1.21927,0.73156 2.47495,1.41452 3.76738,2.04855 1.31681,0.60963 2.6212,1.2191 3.91363,1.82874 1.46313,0.70717 2.8658,1.40211 4.20701,2.0849 1.36558,0.6828 2.55973,1.42645 3.58393,2.23117 1.02419,0.80473 1.84133,1.69455 2.45098,2.66997 0.60964,0.97543 0.91478,2.1097 0.91478,3.40213 0,1.24366 -0.29316,2.36514 -0.87842,3.36493 -0.56087,0.99981 -1.31649,1.84176 -2.26753,2.52454 -0.95104,0.68279 -2.04857,1.20679 -3.29222,1.57256 -1.24367,0.36578 -2.53609,0.54871 -3.87729,0.54871 -1.43875,0 -2.88931,-0.2077 -4.35244,-0.62225 -1.43873,-0.41455 -2.75593,-1.04796 -3.95083,-1.90145 -1.19489,-0.85349 -2.20694,-1.95102 -3.03605,-3.29222 -0.80472,-1.3412 -1.29196,-2.93877 -1.46265,-4.79207 l -0.29254,-0.25618 c -0.85349,0.0243 -1.69542,0.14664 -2.52452,0.36609 -0.80472,0.19509 -1.53559,0.50023 -2.19399,0.91478 -0.65842,0.41455 -1.19521,0.95051 -1.60976,1.60893 -0.39016,0.65839 -0.58506,1.46358 -0.58506,2.41461 0,1.09736 0.24362,2.10941 0.73133,3.03606 0.5121,0.90227 1.19506,1.73139 2.04855,2.48733 0.87788,0.73158 1.88994,1.38975 3.03605,1.97501 1.17049,0.56087 2.40139,1.03614 3.69382,1.4263 1.29244,0.39017 2.6216,0.68333 3.98719,0.87843 1.38998,0.19507 2.73113,0.29252 4.02356,0.29252 2.58486,0 5.07225,-0.35387 7.46203,-1.06104 2.41417,-0.6828 4.5477,-1.69484 6.40099,-3.03604 1.8533,-1.34122 3.32864,-2.9875 4.42599,-4.93834 1.12173,-1.95085 1.6833,-4.18183 1.6833,-6.69352 0,-2.09715 -0.45132,-3.91357 -1.35358,-5.44985 -0.87788,-1.56068 -2.03611,-2.93856 -3.47485,-4.13346 -1.43875,-1.19489 -3.07305,-2.25565 -4.90197,-3.1823 -1.82891,-0.95104 -3.6701,-1.86565 -5.5234,-2.74352 -1.65821,-0.78034 -3.25495,-1.56075 -4.79124,-2.34109 -1.51189,-0.78034 -2.85304,-1.60947 -4.02354,-2.48735 -1.17051,-0.90226 -2.10989,-1.87756 -2.81706,-2.92614 -0.70718,-1.07296 -1.06023,-2.27991 -1.06023,-3.62111 0,-1.04858 0.24363,-2.06062 0.73134,-3.03604 0.51208,-0.97542 1.2318,-1.84131 2.15844,-2.59725 0.95103,-0.78033 2.10927,-1.40178 3.47485,-1.8651 1.36559,-0.46333 2.91361,-0.69497 4.64497,-0.69497 0.97542,0 1.96353,0.10937 2.96334,0.32888 1.02419,0.21948 1.95076,0.57335 2.77987,1.06106 0.8291,0.48771 1.51125,1.12111 2.04771,1.90146 0.56087,0.75595 0.85405,1.69533 0.87842,2.81705 0,0.56087 -0.0736,1.17034 -0.21979,1.82874 -0.14632,0.65841 -0.38994,1.37812 -0.73134,2.15845 l 0.10986,0.36525 c 1.12174,0.31701 2.19448,0.47599 3.21868,0.47599 1.09734,-0.0243 2.02392,-0.23207 2.77987,-0.62226 0.75596,-0.39016 1.36541,-0.86542 1.82874,-1.42629 0.46332,-0.58525 0.79242,-1.20751 0.98751,-1.86591 0.19507,-0.65842 0.29335,-1.26788 0.29335,-1.82874 0,-1.46313 -0.39063,-2.7795 -1.17096,-3.95001 -0.75594,-1.1705 -1.79196,-2.1586 -3.10877,-2.96332 -1.29243,-0.82912 -2.81649,-1.45055 -4.57224,-1.8651 -1.73139,-0.43894 -3.57256,-0.65861 -5.52341,-0.65861 z m 197.22995,0 c -1.51189,0 -3.07272,0.14616 -4.68215,0.4388 -1.58507,0.26823 -3.13391,0.69478 -4.6458,1.28003 -1.51191,0.56086 -2.93853,1.2686 -4.27972,2.12209 -1.31681,0.8535 -2.48702,1.85274 -3.51122,2.99887 -0.99979,1.12173 -1.79218,2.3902 -2.37744,3.80456 -0.58524,1.41436 -0.87842,2.96237 -0.87842,4.64497 0,1.56068 0.21967,2.98729 0.65861,4.27972 0.46333,1.26804 1.08559,2.42627 1.86593,3.47485 0.80472,1.02418 1.73131,1.96358 2.77987,2.81707 1.07297,0.85349 2.21839,1.64586 3.43766,2.37743 1.21927,0.73156 2.47578,1.41452 3.76821,2.04855 1.31682,0.60963 2.62121,1.2191 3.91364,1.82874 1.46313,0.70717 2.86497,1.40211 4.20617,2.0849 1.36559,0.6828 2.56057,1.42645 3.58476,2.23117 1.02418,0.80473 1.84134,1.69455 2.45099,2.66997 0.60964,0.97543 0.91478,2.1097 0.91478,3.40213 0,1.24366 -0.29318,2.36514 -0.87842,3.36493 -0.56087,0.99981 -1.31651,1.84176 -2.26753,2.52454 -0.95104,0.68279 -2.04857,1.20679 -3.29222,1.57256 -1.24366,0.36578 -2.53609,0.54871 -3.87729,0.54871 -1.43875,0 -2.88931,-0.2077 -4.35245,-0.62225 -1.43874,-0.41455 -2.75593,-1.04796 -3.95082,-1.90145 -1.19489,-0.85349 -2.20695,-1.95102 -3.03605,-3.29222 -0.80472,-1.3412 -1.29197,-2.93877 -1.46265,-4.79207 l -0.29336,-0.25618 c -0.85349,0.0243 -1.6946,0.14664 -2.52371,0.36609 -0.80473,0.19509 -1.5364,0.50023 -2.19482,0.91478 -0.6584,0.41455 -1.19437,0.95051 -1.60892,1.60893 -0.39017,0.65839 -0.58507,1.46358 -0.58507,2.41461 0,1.09736 0.24363,2.10941 0.73134,3.03606 0.5121,0.90227 1.19506,1.73139 2.04855,2.48733 0.87788,0.73158 1.88992,1.38975 3.03604,1.97501 1.1705,0.56087 2.4014,1.03614 3.69384,1.4263 1.29243,0.39017 2.62159,0.68333 3.98718,0.87843 1.38997,0.19507 2.73113,0.29252 4.02355,0.29252 2.58486,0 5.07225,-0.35387 7.46204,-1.06104 2.41417,-0.6828 4.54769,-1.69484 6.40099,-3.03604 1.8533,-1.34122 3.32864,-2.9875 4.42599,-4.93834 1.12172,-1.95085 1.68247,-4.18183 1.68247,-6.69352 0,-2.09715 -0.4505,-3.91357 -1.35275,-5.44985 -0.87789,-1.56068 -2.03694,-2.93856 -3.47567,-4.13346 -1.43875,-1.19489 -3.07225,-2.25565 -4.90115,-3.1823 -1.82891,-0.95104 -3.6701,-1.86565 -5.5234,-2.74352 -1.65821,-0.78034 -3.25495,-1.56075 -4.79124,-2.34109 -1.51189,-0.78034 -2.85388,-1.60947 -4.02437,-2.48735 -1.1705,-0.90226 -2.10906,-1.87756 -2.81624,-2.92614 -0.70719,-1.07296 -1.06105,-2.27991 -1.06105,-3.62111 0,-1.04858 0.24445,-2.06062 0.73217,-3.03604 0.51208,-0.97542 1.23097,-1.84131 2.15762,-2.59725 0.95104,-0.78033 2.10925,-1.40178 3.47484,-1.8651 1.36559,-0.46333 2.91443,-0.69497 4.6458,-0.69497 0.97542,0 1.96269,0.10937 2.9625,0.32888 1.0242,0.21948 1.9516,0.57335 2.7807,1.06106 0.82912,0.48771 1.51125,1.12111 2.04774,1.90146 0.56085,0.75595 0.85403,1.69533 0.87842,2.81705 0,0.56087 -0.0736,1.17034 -0.21982,1.82874 -0.14631,0.65841 -0.38994,1.37812 -0.73133,2.15845 l 0.10986,0.36525 c 1.12172,0.31701 2.19448,0.47599 3.21868,0.47599 1.09734,-0.0243 2.02392,-0.23207 2.77987,-0.62226 0.75596,-0.39016 1.36541,-0.86542 1.82873,-1.42629 0.46333,-0.58525 0.79242,-1.20751 0.9875,-1.86591 0.19509,-0.65842 0.29254,-1.26788 0.29254,-1.82874 0,-1.46313 -0.3898,-2.7795 -1.17013,-3.95001 -0.75595,-1.1705 -1.79277,-2.1586 -3.10959,-2.96332 -1.29243,-0.82912 -2.8165,-1.45055 -4.57226,-1.8651 -1.73136,-0.43894 -3.57173,-0.65861 -5.52257,-0.65861 z m 153.9204,0 c -1.5119,0 -3.0719,0.14616 -4.68133,0.4388 -1.58507,0.26823 -3.13391,0.69478 -4.6458,1.28003 -1.51191,0.56086 -2.93853,1.2686 -4.27973,2.12209 -1.31682,0.8535 -2.48701,1.85274 -3.51121,2.99887 -0.99979,1.12173 -1.79218,2.3902 -2.37744,3.80456 -0.58524,1.41436 -0.87842,2.96237 -0.87842,4.64497 0,1.56068 0.21967,2.98729 0.65861,4.27972 0.46333,1.26804 1.08559,2.42627 1.86593,3.47485 0.80472,1.02418 1.73129,1.96358 2.77987,2.81707 1.07297,0.85349 2.21839,1.64586 3.43766,2.37743 1.21927,0.73156 2.47578,1.41452 3.76821,2.04855 1.31682,0.60963 2.62121,1.2191 3.91364,1.82874 1.46313,0.70717 2.86497,1.40211 4.20617,2.0849 1.36559,0.6828 2.56057,1.42645 3.58476,2.23117 1.02418,0.80473 1.84134,1.69455 2.45099,2.66997 0.60964,0.97543 0.91478,2.1097 0.91478,3.40213 0,1.24366 -0.29318,2.36514 -0.87842,3.36493 -0.56087,0.99981 -1.31651,1.84176 -2.26753,2.52454 -0.95104,0.68279 -2.04857,1.20679 -3.29222,1.57256 -1.24368,0.36578 -2.53609,0.54871 -3.87729,0.54871 -1.43875,0 -2.88931,-0.2077 -4.35245,-0.62225 -1.43874,-0.41455 -2.75594,-1.04796 -3.95082,-1.90145 -1.19489,-0.85349 -2.20695,-1.95102 -3.03605,-3.29222 -0.80472,-1.3412 -1.29197,-2.93877 -1.46265,-4.79207 l -0.29338,-0.25618 c -0.85349,0.0243 -1.69458,0.14664 -2.52369,0.36609 -0.80473,0.19509 -1.53642,0.50023 -2.19482,0.91478 -0.65841,0.41455 -1.19437,0.95051 -1.60892,1.60893 -0.39017,0.65839 -0.5859,1.46358 -0.5859,2.41461 0,1.09736 0.24446,2.10941 0.73217,3.03606 0.5121,0.90227 1.19504,1.73139 2.04853,2.48733 0.8779,0.73158 1.88912,1.38975 3.03523,1.97501 1.17052,0.56087 2.40223,1.03614 3.69466,1.4263 1.29244,0.39017 2.6216,0.68333 3.98719,0.87843 1.38997,0.19507 2.73113,0.29252 4.02355,0.29252 2.58486,0 5.07225,-0.35387 7.46204,-1.06104 2.41415,-0.6828 4.54769,-1.69484 6.40099,-3.03604 1.85329,-1.34122 3.32864,-2.9875 4.42599,-4.93834 1.12172,-1.95085 1.68247,-4.18183 1.68247,-6.69352 0,-2.09715 -0.4505,-3.91357 -1.35275,-5.44985 -0.87789,-1.56068 -2.03694,-2.93856 -3.47569,-4.13346 -1.43875,-1.19489 -3.07223,-2.25565 -4.90113,-3.1823 -1.82891,-0.95104 -3.6701,-1.86565 -5.5234,-2.74352 -1.65821,-0.78034 -3.25495,-1.56075 -4.79124,-2.34109 -1.51189,-0.78034 -2.85388,-1.60947 -4.02437,-2.48735 -1.1705,-0.90226 -2.10906,-1.87756 -2.81624,-2.92614 -0.70719,-1.07296 -1.06105,-2.27991 -1.06105,-3.62111 0,-1.04858 0.24444,-2.06062 0.73217,-3.03604 0.51208,-0.97542 1.23097,-1.84131 2.15762,-2.59725 0.95102,-0.78033 2.10925,-1.40178 3.47484,-1.8651 1.36559,-0.46333 2.91443,-0.69497 4.6458,-0.69497 0.97542,0 1.96269,0.10937 2.9625,0.32888 1.0242,0.21948 1.95077,0.57335 2.77987,1.06106 0.82912,0.48771 1.51207,1.12111 2.04855,1.90146 0.56087,0.75595 0.85405,1.69533 0.87842,2.81705 0,0.56087 -0.0736,1.17034 -0.21981,1.82874 -0.14632,0.65841 -0.38993,1.37812 -0.73132,2.15845 l 0.10986,0.36525 c 1.12172,0.31701 2.19448,0.47599 3.21866,0.47599 1.09736,-0.0243 2.02394,-0.23207 2.77989,-0.62226 0.75594,-0.39016 1.36541,-0.86542 1.82873,-1.42629 0.46333,-0.58525 0.79242,-1.20751 0.9875,-1.86591 0.19509,-0.65842 0.29254,-1.26788 0.29254,-1.82874 0,-1.46313 -0.3898,-2.7795 -1.17013,-3.95001 -0.75595,-1.1705 -1.79277,-2.1586 -3.10959,-2.96332 -1.29244,-0.82912 -2.8165,-1.45055 -4.57226,-1.8651 -1.73136,-0.43894 -3.57256,-0.65861 -5.52339,-0.65861 z m 76.37554,0 c -2.77995,0 -5.35198,0.45132 -7.71738,1.35358 -2.3654,0.90226 -4.51171,2.13316 -6.43817,3.69382 -1.92646,1.56068 -3.63344,3.3899 -5.12096,5.48704 -1.46313,2.07276 -2.69486,4.30374 -3.69465,6.69352 -0.99981,2.3654 -1.75545,4.81686 -2.26755,7.35296 -0.51208,2.53609 -0.76851,5.03545 -0.76851,7.4984 0,2.87747 0.41456,5.69396 1.24368,8.44952 0.85349,2.75557 2.0852,5.21819 3.69466,7.38849 1.63382,2.14592 3.64596,3.87769 6.03572,5.19451 2.41417,1.31681 5.18194,1.975 8.30328,1.975 2.77995,0 5.35199,-0.45131 7.71737,-1.35358 2.3654,-0.90226 4.51174,-2.13399 6.43819,-3.69465 1.92645,-1.56068 3.62147,-3.37708 5.08458,-5.44984 1.48752,-2.09717 2.73123,-4.32814 3.73104,-6.69352 1.02417,-2.38979 1.79179,-4.85324 2.30389,-7.38933 0.5121,-2.53608 0.76851,-5.03547 0.76851,-7.49839 0,-2.8775 -0.42654,-5.69398 -1.28003,-8.44955 -0.82911,-2.75554 -2.06083,-5.20619 -3.69465,-7.35212 -1.63384,-2.17031 -3.65794,-3.91405 -6.07211,-5.23087 -2.38978,-1.31681 -5.14557,-1.97499 -8.26691,-1.97499 z m -182.12242,0.10986 c -2.73117,0 -5.29208,0.42653 -7.68186,1.28004 -2.36538,0.85349 -4.54763,2.03647 -6.54725,3.54838 -1.97521,1.48752 -3.74373,3.2552 -5.30441,5.30358 -1.56066,2.024 -2.889,4.21823 -3.98636,6.58362 -1.07295,2.36538 -1.90208,4.85278 -2.48734,7.46204 -0.56087,2.60924 -0.84124,5.21885 -0.84124,7.82811 0,3.19449 0.48724,6.1939 1.46267,8.99823 0.99979,2.77995 2.37769,5.20666 4.13344,7.27942 1.75576,2.07276 3.85254,3.70624 6.29109,4.90114 2.43854,1.19489 5.12166,1.79238 8.04793,1.79238 1.70698,0 3.43792,-0.23165 5.19367,-0.69498 1.75575,-0.43893 3.47471,-1.1219 5.15732,-2.04855 1.70698,-0.95103 3.3413,-2.12122 4.90196,-3.5112 1.58507,-1.41436 3.0604,-3.07262 4.42599,-4.97469 0.0731,-0.0975 0.10986,-0.19499 0.10986,-0.29252 0,-0.17071 -0.0736,-0.34165 -0.21981,-0.51236 -0.14632,-0.19507 -0.31727,-0.36603 -0.51234,-0.51233 -0.19509,-0.17071 -0.41393,-0.31688 -0.65779,-0.43881 -0.21946,-0.14632 -0.40238,-0.25573 -0.5487,-0.32889 -2.3654,2.43855 -4.70662,4.20624 -7.02324,5.30359 -2.29224,1.07295 -4.53601,1.60974 -6.7307,1.60974 -2.1703,0 -4.19442,-0.512 -6.07211,-1.5362 -1.87768,-1.02419 -3.51117,-2.4508 -4.90114,-4.27971 -1.38996,-1.8533 -2.48749,-4.07232 -3.29222,-6.65717 -0.78033,-2.58486 -1.17012,-5.4381 -1.17012,-8.55944 v -0.62226 c 4.48693,-0.39016 8.65654,-0.97485 12.50944,-1.75518 3.8773,-0.80471 7.24255,-1.85352 10.09564,-3.14595 2.85311,-1.29244 5.08409,-2.86523 6.69352,-4.71853 1.63384,-1.8533 2.451,-4.02357 2.451,-6.5109 0,-1.70698 -0.36584,-3.23104 -1.09742,-4.57224 -0.73156,-1.3412 -1.71883,-2.4635 -2.9625,-3.36576 -1.21927,-0.92665 -2.64588,-1.63357 -4.27972,-2.12128 -1.63382,-0.48771 -3.35278,-0.73132 -5.15731,-0.73132 z m 137.57002,0.40243 c -0.43894,0 -0.92617,0.0488 -1.46265,0.14632 -0.5121,0.0731 -1.00016,0.23129 -1.46349,0.47516 -0.46332,0.21946 -0.85312,0.54855 -1.17013,0.98749 -0.317,0.41456 -0.49993,0.96332 -0.5487,1.64612 -0.19509,3.12134 -0.35406,6.1575 -0.47599,9.10814 -0.12201,2.92626 -0.21936,5.71797 -0.29252,8.376 -0.0731,2.63363 -0.13385,5.10904 -0.18264,7.42567 -0.0243,2.29224 -0.0363,4.35308 -0.0363,6.182 0,3.12134 0.0608,5.77886 0.18264,7.97355 0.12185,2.19469 0.29287,4.02391 0.51233,5.48704 0.24387,1.46312 0.5362,2.62135 0.87761,3.47484 0.36578,0.85349 0.76837,1.49971 1.20731,1.93864 0.46332,0.43894 0.97534,0.70734 1.53621,0.80488 0.56085,0.12185 1.1823,0.18262 1.86508,0.18262 1.0242,0 2.23197,-0.19488 3.62195,-0.58506 1.41436,-0.36578 2.85294,-0.85385 4.31608,-1.46349 1.46313,-0.60963 2.85299,-1.27978 4.16981,-2.01135 1.3412,-0.73156 2.45071,-1.45127 3.32858,-2.15846 l -0.69497,-1.90145 c -1.38997,0.63401 -2.76786,1.13324 -4.13346,1.49902 -1.34119,0.34139 -2.59687,0.51234 -3.76736,0.51234 -0.63403,0 -1.20757,-0.0608 -1.71967,-0.18262 -0.48771,-0.12201 -0.92621,-0.37835 -1.31638,-0.76852 -0.3658,-0.41456 -0.68291,-0.98727 -0.95115,-1.71883 -0.24386,-0.75596 -0.45155,-1.75604 -0.62224,-2.99969 -0.17071,-1.24366 -0.29211,-2.76774 -0.36527,-4.57225 -0.0731,-1.82892 -0.10986,-4.01118 -0.10986,-6.54726 0,-1.87769 0.0368,-3.97528 0.10986,-6.2919 0.0976,-2.34101 0.23174,-4.81561 0.40245,-7.42486 0.19507,-2.60924 0.4387,-5.30434 0.73133,-8.08429 0.29262,-2.80432 0.64649,-5.59604 1.06104,-8.37599 -1.43875,-0.75594 -2.97561,-1.13376 -4.60944,-1.13376 z m -141.04569,3.87729 c 1.07295,0 2.07303,0.20686 2.99968,0.62143 0.92665,0.41455 1.71904,0.98808 2.37744,1.71964 0.68279,0.70719 1.20761,1.54829 1.57339,2.52371 0.39017,0.97542 0.58507,2.02423 0.58507,3.14595 0,1.6826 -0.50004,3.1819 -1.49985,4.49872 -0.99981,1.29243 -2.45037,2.41389 -4.35245,3.36493 -1.87767,0.92665 -4.19495,1.69508 -6.95051,2.30473 -2.73117,0.58525 -5.82803,0.9998 -9.29077,1.24367 0.14632,-1.43875 0.39076,-2.9141 0.73215,-4.42599 0.3414,-1.51191 0.77992,-2.98724 1.3164,-4.42599 0.56086,-1.43874 1.23186,-2.79186 2.01219,-4.05992 0.78033,-1.29243 1.68215,-2.41473 2.70632,-3.36575 1.0242,-0.97542 2.18242,-1.74304 3.47486,-2.30391 1.29243,-0.56085 2.73102,-0.84122 4.31608,-0.84122 z m 181.6109,0.76768 c 1.63383,0 3.12198,0.29318 4.46318,0.87842 1.36559,0.58526 2.5845,1.38961 3.65747,2.4138 1.09734,0.99981 2.0359,2.19479 2.81623,3.58476 0.80472,1.36558 1.47571,2.84093 2.01219,4.42599 0.53648,1.56066 0.92627,3.19415 1.17013,4.90113 0.26823,1.68261 0.40243,3.36565 0.40243,5.04825 0,1.43875 -0.0846,3.01153 -0.25534,4.71851 -0.14632,1.70698 -0.41472,3.43792 -0.80488,5.19369 -0.39017,1.73136 -0.91498,3.41439 -1.57339,5.04823 -0.63402,1.63382 -1.45034,3.0844 -2.45015,4.35244 -0.97542,1.26805 -2.14645,2.29206 -3.51204,3.07241 -1.3412,0.75595 -2.90202,1.13458 -4.68216,1.13458 -1.63382,0 -3.13311,-0.29316 -4.4987,-0.87842 -1.3412,-0.58524 -2.56014,-1.3896 -3.65747,-2.41378 -1.07297,-1.0242 -2.01235,-2.21918 -2.81707,-3.58477 -0.78033,-1.38997 -1.43852,-2.87728 -1.975,-4.46233 -0.53647,-1.58507 -0.93908,-3.23136 -1.20731,-4.93834 -0.24385,-1.70698 -0.36525,-3.38919 -0.36525,-5.04742 0,-1.41434 0.0728,-2.97516 0.21898,-4.68215 0.1707,-1.73136 0.45107,-3.46313 0.84124,-5.1945 0.39016,-1.73136 0.90218,-3.41359 1.53621,-5.04741 0.6584,-1.63382 1.47556,-3.08522 2.45098,-4.35326 0.99979,-1.26805 2.17,-2.2801 3.5112,-3.03606 1.36559,-0.75595 2.93838,-1.13377 4.71852,-1.13377 z M 78.301726,176.77756 c -0.170689,1.73136 -0.536532,3.42555 -1.097402,5.08376 -0.536484,1.63384 -1.219446,3.19465 -2.04855,4.68217 -0.829104,1.4875 -1.767651,2.8654 -2.816232,4.13344 -1.024195,1.24367 -2.109748,2.31642 -3.255859,3.21868 -1.12174,0.90226 -2.267995,1.61 -3.438492,2.12209 -1.170497,0.5121 -2.303958,0.7677 -3.401296,0.76769 -0.975423,1e-5 -1.817352,-0.18291 -2.52454,-0.5487 -0.682786,-0.39017 -1.255505,-0.91415 -1.71883,-1.57256 -0.438923,-0.6584 -0.768018,-1.41486 -0.987496,-2.26837 -0.195074,-0.87787 -0.292524,-1.79165 -0.292524,-2.74269 0,-1.68259 0.280371,-3.15794 0.841225,-4.42598 0.560871,-1.29243 1.328473,-2.40192 2.303895,-3.32857 0.999809,-0.95104 2.182811,-1.74426 3.548399,-2.37827 1.365588,-0.63403 2.840922,-1.14603 4.425987,-1.53622 1.609436,-0.39016 3.304455,-0.67053 5.084595,-0.84122 1.78014,-0.19509 3.572593,-0.31648 5.37712,-0.36525 z m 96.858554,0 c -0.1707,1.73136 -0.53655,3.42555 -1.09742,5.08376 -0.53648,1.63384 -1.21861,3.19465 -2.04771,4.68217 -0.82911,1.4875 -1.76849,2.8654 -2.81707,4.13344 -1.02419,1.24367 -2.10891,2.31642 -3.25502,3.21868 -1.12174,0.90226 -2.268,1.61 -3.4385,2.12209 -1.17049,0.5121 -2.30477,0.7677 -3.40212,0.76769 -0.97543,1e-5 -1.81652,-0.18291 -2.52371,-0.5487 -0.68279,-0.39017 -1.25551,-0.91415 -1.71883,-1.57256 -0.43894,-0.6584 -0.76802,-1.41486 -0.9875,-2.26837 -0.19509,-0.87787 -0.29335,-1.79165 -0.29335,-2.74269 0,-1.68259 0.28037,-3.15794 0.84124,-4.42598 0.56085,-1.29243 1.32929,-2.40192 2.30471,-3.32857 0.99981,-0.95104 2.18281,-1.74426 3.5484,-2.37827 1.36558,-0.63403 2.84092,-1.14603 4.42598,-1.53622 1.60944,-0.39016 3.30363,-0.67053 5.08377,-0.84122 1.78014,-0.19509 3.57261,-0.31648 5.37713,-0.36525 z"
       inkscape:connector-curvature="0" />
    <path
       sodipodi:nodetypes="cscsccc"
       inkscape:connector-curvature="0"
       id="path4971-6-8"
       d="m 502.19721,136.9539 c -9.49956,9.23861 -24.87867,3.1841 -28.27536,-5.59335 -6.55493,-16.93832 -14.93308,-21.22889 -16.98179,-23.42469 0,0 31.19775,-5.53091 42.88726,4.34458 6.83148,5.77136 7.54803,14.41456 4.69773,19.66892 -7.77248,-13.31469 -23.96677,-15.5463 -24.17954,-15.2552 2.15692,0.84074 17.41988,10.48939 21.8517,20.25974 z"
       style="fill:#7aa72d;fill-opacity:1;stroke:none;stroke-width:2.6017499;stroke-linecap:butt;stroke-linejoin:miter;stroke-miterlimit:4;stroke-dasharray:none;stroke-opacity:1" />
    <path
       inkscape:transform-center-y="0.65531794"
       inkscape:transform-center-x="0.64417388"
       sodipodi:nodetypes="cscsccc"
       inkscape:connector-curvature="0"
       id="path4971-3-4-1"
       d="m 515.0584,137.55401 c 13.50075,12.78008 34.95955,3.99574 39.55818,-8.38131 8.87455,-23.88461 20.54634,-30.061884 23.37864,-33.18097 0,0 -43.8682,-7.168257 -60.07925,6.90617 -9.47379,8.22503 -10.31569,20.36287 -6.21548,27.68051 10.64844,-18.82626 33.32585,-22.26163 33.62998,-21.85725 -3.01002,1.22004 -24.23786,15.04377 -30.26987,28.83342 z"
       style="fill:#7aa72d;fill-opacity:1;stroke:none;stroke-width:3.65000749;stroke-linecap:butt;stroke-linejoin:miter;stroke-miterlimit:4;stroke-dasharray:none;stroke-opacity:1" />
  </g>
</svg>
