<?xml version="1.0" encoding="UTF-8" standalone="no"?>
<svg
   xmlns:dc="http://purl.org/dc/elements/1.1/"
   xmlns:cc="http://creativecommons.org/ns#"
   xmlns:rdf="http://www.w3.org/1999/02/22-rdf-syntax-ns#"
   xmlns:svg="http://www.w3.org/2000/svg"
   xmlns="http://www.w3.org/2000/svg"
   xmlns:sodipodi="http://sodipodi.sourceforge.net/DTD/sodipodi-0.dtd"
   xmlns:inkscape="http://www.inkscape.org/namespaces/inkscape"
   aria-hidden="true"
   focusable="false"
   data-prefix="fas"
   data-icon="expand-alt"
   class="svg-inline--fa fa-expand-alt fa-w-14"
   role="img"
   viewBox="0 0 448 448"
   version="1.1"
   id="svg4"
   sodipodi:docname="retract-menu-icon.svg"
   width="448"
   height="448"
   inkscape:version="0.92.4 (5da689c313, 2019-01-14)">
  <metadata
     id="metadata10">
    <rdf:RDF>
      <cc:Work
         rdf:about="">
        <dc:format>image/svg+xml</dc:format>
        <dc:type
           rdf:resource="http://purl.org/dc/dcmitype/StillImage" />
        <dc:title></dc:title>
      </cc:Work>
    </rdf:RDF>
  </metadata>
  <defs
     id="defs8" />
  <sodipodi:namedview
     pagecolor="#ffffff"
     bordercolor="#666666"
     borderopacity="1"
     objecttolerance="10"
     gridtolerance="10"
     guidetolerance="10"
     inkscape:pageopacity="0"
     inkscape:pageshadow="2"
     inkscape:window-width="1920"
     inkscape:window-height="1017"
     id="namedview6"
     showgrid="false"
     fit-margin-top="0"
     fit-margin-left="0"
     fit-margin-right="0"
     fit-margin-bottom="0"
     inkscape:zoom="0.4609375"
     inkscape:cx="224"
     inkscape:cy="224"
     inkscape:window-x="-8"
     inkscape:window-y="-8"
     inkscape:window-maximized="1"
     inkscape:current-layer="svg4" />
  <path
     style="fill:#ffffff;fill-opacity:1"
     d="m 4.6867425,395.314 92.6860105,-92.68599 -32.922,-31.029 c -15.12,-15.12 -4.412,-40.971 16.97,-40.971 H 193.42075 c 13.255,0 23.952,10.745 23.952,24 V 366.628 c 0,21.382 -25.803,32.09 -40.922,16.971 l -31.078,-32.971 -92.685997,92.686 c -6.24801,6.248 -16.379,6.248 -22.62701,0 L 4.6867425,417.941 c -6.24899,-6.248 -6.24899,-16.378 0,-22.627 z"
     id="path846"
     inkscape:connector-curvature="0" />
  <path
     style="fill:#ffffff;fill-opacity:1"
     d="m 443.31324,52.685999 -92.686,92.686001 32.922,31.029 c 15.12,15.12 4.412,40.971 -16.97,40.971 H 254.57925 c -13.255,0 -23.952,-10.745 -23.952,-24 V 81.371999 c 0,-21.382 25.803,-32.09 40.922,-16.971 l 31.078,32.971 L 395.31324,4.686 c 6.248,-6.248 16.379,-6.248 22.627,0 l 25.373,25.372999 c 6.249,6.248 6.249,16.378 0,22.627 z"
     id="path2"
     inkscape:connector-curvature="0" />
</svg>
